<svg xmlns="http://www.w3.org/2000/svg" aria-hidden="true" style="position:absolute;width:0;height:0;overflow:hidden">
  <defs>
    <symbol id="icon-close" viewBox="0 0 32 32">
      <path d="M32 3.223 28.777 0 16 12.777 3.223 0 0 3.223 12.777 16 0 28.777 3.223 32 16 19.223 28.777 32 32 28.777 19.223 16 32 3.223z"/>
    </symbol>
    <symbol id="icon-email" viewBox="0 0 43 32">
      <path d="M37.333 0h-32c-2.2 0-3.98 1.8-3.98 4l-.02 24c0 2.2 1.8 4 4 4h32c2.2 0 4-1.8 4-4V4c0-2.2-1.8-4-4-4zm-.8 8.5-14.14 8.84c-.64.4-1.48.4-2.12 0L6.133 8.5c-.5-.32-.8-.86-.8-1.44 0-1.34 1.46-2.14 2.6-1.44l13.4 8.38 13.4-8.38c1.14-.7 2.6.1 2.6 1.44 0 .58-.3 1.12-.8 1.44z"/>
    </symbol>
    <symbol id="icon-name" viewBox="0 0 32 32">
      <path d="M16 16c4.42 0 8-3.58 8-8s-3.58-8-8-8-8 3.58-8 8 3.58 8 8 8zm0 4c-5.34 0-16 2.68-16 8v2c0 1.1.9 2 2 2h28c1.1 0 2-.9 2-2v-2c0-5.32-10.66-8-16-8z"/>
    </symbol>
    <symbol id="icon-phone" viewBox="0 0 30 32">
      <path d="m24.802 14.931-3.096-.353a2.428 2.428 0 0 0-1.999.695l-2.243 2.243a18.34 18.34 0 0 1-8.032-8.032l2.255-2.255c.524-.524.78-1.255.695-1.999l-.353-3.071A2.439 2.439 0 0 0 9.604.002H7.495c-1.377 0-2.523 1.146-2.438 2.523.646 10.409 8.971 18.721 19.367 19.367 1.377.085 2.523-1.06 2.523-2.438v-2.109a2.415 2.415 0 0 0-2.145-2.413z"/>
    </symbol>
    <symbol id="icon-subcribe" viewBox="0 0 37 32">
      <path d="M32 0 4.571 12.857l8.766 2.705 13.52-10.563-10.284 11.562.008.003-.01-.003v6.296l4.916-4.779L27.714 20 32 0z"/>
    </symbol>
  </defs>
</svg>
